<?xml version="1.0" standalone="no"?>
 <!DOCTYPE svg PUBLIC "-//W3C//DTD SVG 1.1//EN" 
 "http://www.w3.org/Graphics/SVG/1.1/DTD/svg11.dtd"> 
<svg xmlns="http://www.w3.org/2000/svg" version="1.1" 
    width="29.7002cm" height="21.0007cm" viewBox="0 0 116930 82680 ">
<title>SVG Picture created as Mic_Array-brd.svg date 2019/06/29 05:15:26 </title>
  <desc>Picture generated by PCBNEW </desc>
<g style="fill:#000000; fill-opacity:1;stroke:#000000; stroke-opacity:1;
stroke-linecap:round; stroke-linejoin:round; "
 transform="translate(0 0) scale(1 1)">
</g>
<g style="fill:#000000; fill-opacity:0.0; 
stroke:#000000; stroke-width:-0.000393701; stroke-opacity:1; 
stroke-linecap:round; stroke-linejoin:round;">
</g>
<g style="fill:#000000; fill-opacity:1.0; 
stroke:#000000; stroke-width:0; stroke-opacity:1; 
stroke-linecap:round; stroke-linejoin:round;">
<circle cx="65802.5" cy="34916.7" r="393.701" /> 
</g>
<g style="fill:#000000; fill-opacity:1.0; 
stroke:#000000; stroke-width:39.3701; stroke-opacity:1; 
stroke-linecap:round; stroke-linejoin:round;">
</g>
<g style="fill:#000000; fill-opacity:1.0; 
stroke:#000000; stroke-width:0; stroke-opacity:1; 
stroke-linecap:round; stroke-linejoin:round;">
<circle cx="65802.5" cy="33916.7" r="393.701" /> 
</g>
<g style="fill:#000000; fill-opacity:1.0; 
stroke:#000000; stroke-width:39.3701; stroke-opacity:1; 
stroke-linecap:round; stroke-linejoin:round;">
</g>
<g style="fill:#000000; fill-opacity:1.0; 
stroke:#000000; stroke-width:0; stroke-opacity:1; 
stroke-linecap:round; stroke-linejoin:round;">
<circle cx="59219.5" cy="34909.7" r="393.701" /> 
</g>
<g style="fill:#000000; fill-opacity:1.0; 
stroke:#000000; stroke-width:39.3701; stroke-opacity:1; 
stroke-linecap:round; stroke-linejoin:round;">
</g>
<g style="fill:#000000; fill-opacity:1.0; 
stroke:#000000; stroke-width:0; stroke-opacity:1; 
stroke-linecap:round; stroke-linejoin:round;">
<circle cx="59219.5" cy="33909.7" r="393.701" /> 
</g>
<g style="fill:#000000; fill-opacity:1.0; 
stroke:#000000; stroke-width:39.3701; stroke-opacity:1; 
stroke-linecap:round; stroke-linejoin:round;">
</g>
<g style="fill:#000000; fill-opacity:1.0; 
stroke:#000000; stroke-width:0; stroke-opacity:1; 
stroke-linecap:round; stroke-linejoin:round;">
<circle cx="43761.5" cy="34908.7" r="393.701" /> 
</g>
<g style="fill:#000000; fill-opacity:1.0; 
stroke:#000000; stroke-width:39.3701; stroke-opacity:1; 
stroke-linecap:round; stroke-linejoin:round;">
</g>
<g style="fill:#000000; fill-opacity:1.0; 
stroke:#000000; stroke-width:0; stroke-opacity:1; 
stroke-linecap:round; stroke-linejoin:round;">
<circle cx="43761.5" cy="33908.7" r="393.701" /> 
</g>
<g style="fill:#000000; fill-opacity:1.0; 
stroke:#000000; stroke-width:39.3701; stroke-opacity:1; 
stroke-linecap:round; stroke-linejoin:round;">
</g>
<g style="fill:#000000; fill-opacity:1.0; 
stroke:#000000; stroke-width:0; stroke-opacity:1; 
stroke-linecap:round; stroke-linejoin:round;">
<circle cx="50349.5" cy="34908.7" r="393.701" /> 
</g>
<g style="fill:#000000; fill-opacity:1.0; 
stroke:#000000; stroke-width:39.3701; stroke-opacity:1; 
stroke-linecap:round; stroke-linejoin:round;">
</g>
<g style="fill:#000000; fill-opacity:1.0; 
stroke:#000000; stroke-width:0; stroke-opacity:1; 
stroke-linecap:round; stroke-linejoin:round;">
<circle cx="50349.5" cy="33908.7" r="393.701" /> 
</g>
<g style="fill:#000000; fill-opacity:1.0; 
stroke:#000000; stroke-width:39.3701; stroke-opacity:1; 
stroke-linecap:round; stroke-linejoin:round;">
</g>
<g style="fill:#000000; fill-opacity:1.0; 
stroke:#000000; stroke-width:0; stroke-opacity:1; 
stroke-linecap:round; stroke-linejoin:round;">
<circle cx="65827.6" cy="17559.1" r="393.701" /> 
</g>
<g style="fill:#000000; fill-opacity:1.0; 
stroke:#000000; stroke-width:39.3701; stroke-opacity:1; 
stroke-linecap:round; stroke-linejoin:round;">
</g>
<g style="fill:#000000; fill-opacity:1.0; 
stroke:#000000; stroke-width:0; stroke-opacity:1; 
stroke-linecap:round; stroke-linejoin:round;">
<circle cx="64827.6" cy="17559.1" r="393.701" /> 
</g>
<g style="fill:#000000; fill-opacity:1.0; 
stroke:#000000; stroke-width:39.3701; stroke-opacity:1; 
stroke-linecap:round; stroke-linejoin:round;">
</g>
<g style="fill:#000000; fill-opacity:1.0; 
stroke:#000000; stroke-width:0; stroke-opacity:1; 
stroke-linecap:round; stroke-linejoin:round;">
<circle cx="59213.5" cy="17637.8" r="393.701" /> 
</g>
<g style="fill:#000000; fill-opacity:1.0; 
stroke:#000000; stroke-width:39.3701; stroke-opacity:1; 
stroke-linecap:round; stroke-linejoin:round;">
</g>
<g style="fill:#000000; fill-opacity:1.0; 
stroke:#000000; stroke-width:0; stroke-opacity:1; 
stroke-linecap:round; stroke-linejoin:round;">
<circle cx="58213.5" cy="17637.8" r="393.701" /> 
</g>
<g style="fill:#000000; fill-opacity:1.0; 
stroke:#000000; stroke-width:39.3701; stroke-opacity:1; 
stroke-linecap:round; stroke-linejoin:round;">
</g>
<g style="fill:#000000; fill-opacity:1.0; 
stroke:#000000; stroke-width:0; stroke-opacity:1; 
stroke-linecap:round; stroke-linejoin:round;">
<circle cx="43780.4" cy="17480.3" r="393.701" /> 
</g>
<g style="fill:#000000; fill-opacity:1.0; 
stroke:#000000; stroke-width:39.3701; stroke-opacity:1; 
stroke-linecap:round; stroke-linejoin:round;">
</g>
<g style="fill:#000000; fill-opacity:1.0; 
stroke:#000000; stroke-width:0; stroke-opacity:1; 
stroke-linecap:round; stroke-linejoin:round;">
<circle cx="42780.4" cy="17480.3" r="393.701" /> 
</g>
<g style="fill:#000000; fill-opacity:1.0; 
stroke:#000000; stroke-width:39.3701; stroke-opacity:1; 
stroke-linecap:round; stroke-linejoin:round;">
</g>
<g style="fill:#000000; fill-opacity:1.0; 
stroke:#000000; stroke-width:0; stroke-opacity:1; 
stroke-linecap:round; stroke-linejoin:round;">
<circle cx="50315.8" cy="17559.1" r="393.701" /> 
</g>
<g style="fill:#000000; fill-opacity:1.0; 
stroke:#000000; stroke-width:39.3701; stroke-opacity:1; 
stroke-linecap:round; stroke-linejoin:round;">
</g>
<g style="fill:#000000; fill-opacity:1.0; 
stroke:#000000; stroke-width:0; stroke-opacity:1; 
stroke-linecap:round; stroke-linejoin:round;">
<circle cx="49315.8" cy="17559.1" r="393.701" /> 
</g>
<g style="fill:#000000; fill-opacity:1.0; 
stroke:#000000; stroke-width:39.3701; stroke-opacity:1; 
stroke-linecap:round; stroke-linejoin:round;">
</g>
<g style="fill:#000000; fill-opacity:1.0; 
stroke:#000000; stroke-width:0; stroke-opacity:1; 
stroke-linecap:round; stroke-linejoin:round;">
<circle cx="59134.7" cy="56692.9" r="393.701" /> 
</g>
<g style="fill:#000000; fill-opacity:1.0; 
stroke:#000000; stroke-width:39.3701; stroke-opacity:1; 
stroke-linecap:round; stroke-linejoin:round;">
</g>
<g style="fill:#000000; fill-opacity:1.0; 
stroke:#000000; stroke-width:0; stroke-opacity:1; 
stroke-linecap:round; stroke-linejoin:round;">
<circle cx="58134.7" cy="56692.9" r="393.701" /> 
</g>
<g style="fill:#000000; fill-opacity:1.0; 
stroke:#000000; stroke-width:39.3701; stroke-opacity:1; 
stroke-linecap:round; stroke-linejoin:round;">
</g>
<g style="fill:#000000; fill-opacity:1.0; 
stroke:#000000; stroke-width:0; stroke-opacity:1; 
stroke-linecap:round; stroke-linejoin:round;">
<circle cx="65748.9" cy="56850.4" r="393.701" /> 
</g>
<g style="fill:#000000; fill-opacity:1.0; 
stroke:#000000; stroke-width:39.3701; stroke-opacity:1; 
stroke-linecap:round; stroke-linejoin:round;">
</g>
<g style="fill:#000000; fill-opacity:1.0; 
stroke:#000000; stroke-width:0; stroke-opacity:1; 
stroke-linecap:round; stroke-linejoin:round;">
<circle cx="64748.9" cy="56850.4" r="393.701" /> 
</g>
<g style="fill:#000000; fill-opacity:1.0; 
stroke:#000000; stroke-width:39.3701; stroke-opacity:1; 
stroke-linecap:round; stroke-linejoin:round;">
</g>
<g style="fill:#000000; fill-opacity:1.0; 
stroke:#000000; stroke-width:0; stroke-opacity:1; 
stroke-linecap:round; stroke-linejoin:round;">
<circle cx="50315.8" cy="56692.9" r="393.701" /> 
</g>
<g style="fill:#000000; fill-opacity:1.0; 
stroke:#000000; stroke-width:39.3701; stroke-opacity:1; 
stroke-linecap:round; stroke-linejoin:round;">
</g>
<g style="fill:#000000; fill-opacity:1.0; 
stroke:#000000; stroke-width:0; stroke-opacity:1; 
stroke-linecap:round; stroke-linejoin:round;">
<circle cx="49315.8" cy="56692.9" r="393.701" /> 
</g>
<g style="fill:#000000; fill-opacity:1.0; 
stroke:#000000; stroke-width:39.3701; stroke-opacity:1; 
stroke-linecap:round; stroke-linejoin:round;">
</g>
<g style="fill:#000000; fill-opacity:1.0; 
stroke:#000000; stroke-width:0; stroke-opacity:1; 
stroke-linecap:round; stroke-linejoin:round;">
<circle cx="43622.9" cy="56535.4" r="393.701" /> 
</g>
<g style="fill:#000000; fill-opacity:1.0; 
stroke:#000000; stroke-width:39.3701; stroke-opacity:1; 
stroke-linecap:round; stroke-linejoin:round;">
</g>
<g style="fill:#000000; fill-opacity:1.0; 
stroke:#000000; stroke-width:0; stroke-opacity:1; 
stroke-linecap:round; stroke-linejoin:round;">
<circle cx="42622.9" cy="56535.4" r="393.701" /> 
</g>
<g style="fill:#000000; fill-opacity:1.0; 
stroke:#000000; stroke-width:39.3701; stroke-opacity:1; 
stroke-linecap:round; stroke-linejoin:round;">
</g>
<g style="fill:#000000; fill-opacity:1.0; 
stroke:#000000; stroke-width:0; stroke-opacity:1; 
stroke-linecap:round; stroke-linejoin:round;">
<circle cx="59140.4" cy="39303.9" r="393.701" /> 
</g>
<g style="fill:#000000; fill-opacity:1.0; 
stroke:#000000; stroke-width:39.3701; stroke-opacity:1; 
stroke-linecap:round; stroke-linejoin:round;">
</g>
<g style="fill:#000000; fill-opacity:1.0; 
stroke:#000000; stroke-width:0; stroke-opacity:1; 
stroke-linecap:round; stroke-linejoin:round;">
<circle cx="59140.4" cy="40303.9" r="393.701" /> 
</g>
<g style="fill:#000000; fill-opacity:1.0; 
stroke:#000000; stroke-width:39.3701; stroke-opacity:1; 
stroke-linecap:round; stroke-linejoin:round;">
</g>
<g style="fill:#000000; fill-opacity:1.0; 
stroke:#000000; stroke-width:0; stroke-opacity:1; 
stroke-linecap:round; stroke-linejoin:round;">
<circle cx="65728.4" cy="39303.9" r="393.701" /> 
</g>
<g style="fill:#000000; fill-opacity:1.0; 
stroke:#000000; stroke-width:39.3701; stroke-opacity:1; 
stroke-linecap:round; stroke-linejoin:round;">
</g>
<g style="fill:#000000; fill-opacity:1.0; 
stroke:#000000; stroke-width:0; stroke-opacity:1; 
stroke-linecap:round; stroke-linejoin:round;">
<circle cx="65728.4" cy="40303.9" r="393.701" /> 
</g>
<g style="fill:#000000; fill-opacity:1.0; 
stroke:#000000; stroke-width:39.3701; stroke-opacity:1; 
stroke-linecap:round; stroke-linejoin:round;">
</g>
<g style="fill:#000000; fill-opacity:1.0; 
stroke:#000000; stroke-width:0; stroke-opacity:1; 
stroke-linecap:round; stroke-linejoin:round;">
<circle cx="50270.4" cy="39302.9" r="393.701" /> 
</g>
<g style="fill:#000000; fill-opacity:1.0; 
stroke:#000000; stroke-width:39.3701; stroke-opacity:1; 
stroke-linecap:round; stroke-linejoin:round;">
</g>
<g style="fill:#000000; fill-opacity:1.0; 
stroke:#000000; stroke-width:0; stroke-opacity:1; 
stroke-linecap:round; stroke-linejoin:round;">
<circle cx="50270.4" cy="40302.9" r="393.701" /> 
</g>
<g style="fill:#000000; fill-opacity:1.0; 
stroke:#000000; stroke-width:39.3701; stroke-opacity:1; 
stroke-linecap:round; stroke-linejoin:round;">
</g>
<g style="fill:#000000; fill-opacity:1.0; 
stroke:#000000; stroke-width:0; stroke-opacity:1; 
stroke-linecap:round; stroke-linejoin:round;">
<circle cx="43687.4" cy="39295.9" r="393.701" /> 
</g>
<g style="fill:#000000; fill-opacity:1.0; 
stroke:#000000; stroke-width:39.3701; stroke-opacity:1; 
stroke-linecap:round; stroke-linejoin:round;">
</g>
<g style="fill:#000000; fill-opacity:1.0; 
stroke:#000000; stroke-width:0; stroke-opacity:1; 
stroke-linecap:round; stroke-linejoin:round;">
<circle cx="43687.4" cy="40295.9" r="393.701" /> 
</g>
<g style="fill:#000000; fill-opacity:1.0; 
stroke:#000000; stroke-width:39.3701; stroke-opacity:1; 
stroke-linecap:round; stroke-linejoin:round;">
</g>
<g style="fill:#FFFFFF; fill-opacity:1.0; 
stroke:#FFFFFF; stroke-width:39.3701; stroke-opacity:1; 
stroke-linecap:round; stroke-linejoin:round;">
</g>
<g style="fill:#FFFFFF; fill-opacity:1.0; 
stroke:#FFFFFF; stroke-width:0; stroke-opacity:1; 
stroke-linecap:round; stroke-linejoin:round;">
<circle cx="65802.5" cy="34916.7" r="157.48" /> 
</g>
<g style="fill:#FFFFFF; fill-opacity:1.0; 
stroke:#FFFFFF; stroke-width:39.3701; stroke-opacity:1; 
stroke-linecap:round; stroke-linejoin:round;">
</g>
<g style="fill:#FFFFFF; fill-opacity:1.0; 
stroke:#FFFFFF; stroke-width:0; stroke-opacity:1; 
stroke-linecap:round; stroke-linejoin:round;">
<circle cx="65802.5" cy="33916.7" r="157.48" /> 
</g>
<g style="fill:#FFFFFF; fill-opacity:1.0; 
stroke:#FFFFFF; stroke-width:39.3701; stroke-opacity:1; 
stroke-linecap:round; stroke-linejoin:round;">
</g>
<g style="fill:#FFFFFF; fill-opacity:1.0; 
stroke:#FFFFFF; stroke-width:0; stroke-opacity:1; 
stroke-linecap:round; stroke-linejoin:round;">
<circle cx="59219.5" cy="34909.7" r="157.48" /> 
</g>
<g style="fill:#FFFFFF; fill-opacity:1.0; 
stroke:#FFFFFF; stroke-width:39.3701; stroke-opacity:1; 
stroke-linecap:round; stroke-linejoin:round;">
</g>
<g style="fill:#FFFFFF; fill-opacity:1.0; 
stroke:#FFFFFF; stroke-width:0; stroke-opacity:1; 
stroke-linecap:round; stroke-linejoin:round;">
<circle cx="59219.5" cy="33909.7" r="157.48" /> 
</g>
<g style="fill:#FFFFFF; fill-opacity:1.0; 
stroke:#FFFFFF; stroke-width:39.3701; stroke-opacity:1; 
stroke-linecap:round; stroke-linejoin:round;">
</g>
<g style="fill:#FFFFFF; fill-opacity:1.0; 
stroke:#FFFFFF; stroke-width:0; stroke-opacity:1; 
stroke-linecap:round; stroke-linejoin:round;">
<circle cx="43761.5" cy="34908.7" r="157.48" /> 
</g>
<g style="fill:#FFFFFF; fill-opacity:1.0; 
stroke:#FFFFFF; stroke-width:39.3701; stroke-opacity:1; 
stroke-linecap:round; stroke-linejoin:round;">
</g>
<g style="fill:#FFFFFF; fill-opacity:1.0; 
stroke:#FFFFFF; stroke-width:0; stroke-opacity:1; 
stroke-linecap:round; stroke-linejoin:round;">
<circle cx="43761.5" cy="33908.7" r="157.48" /> 
</g>
<g style="fill:#FFFFFF; fill-opacity:1.0; 
stroke:#FFFFFF; stroke-width:39.3701; stroke-opacity:1; 
stroke-linecap:round; stroke-linejoin:round;">
</g>
<g style="fill:#FFFFFF; fill-opacity:1.0; 
stroke:#FFFFFF; stroke-width:0; stroke-opacity:1; 
stroke-linecap:round; stroke-linejoin:round;">
<circle cx="50349.5" cy="34908.7" r="157.48" /> 
</g>
<g style="fill:#FFFFFF; fill-opacity:1.0; 
stroke:#FFFFFF; stroke-width:39.3701; stroke-opacity:1; 
stroke-linecap:round; stroke-linejoin:round;">
</g>
<g style="fill:#FFFFFF; fill-opacity:1.0; 
stroke:#FFFFFF; stroke-width:0; stroke-opacity:1; 
stroke-linecap:round; stroke-linejoin:round;">
<circle cx="50349.5" cy="33908.7" r="157.48" /> 
</g>
<g style="fill:#FFFFFF; fill-opacity:1.0; 
stroke:#FFFFFF; stroke-width:39.3701; stroke-opacity:1; 
stroke-linecap:round; stroke-linejoin:round;">
</g>
<g style="fill:#FFFFFF; fill-opacity:1.0; 
stroke:#FFFFFF; stroke-width:0; stroke-opacity:1; 
stroke-linecap:round; stroke-linejoin:round;">
<circle cx="65827.6" cy="17559.1" r="157.48" /> 
</g>
<g style="fill:#FFFFFF; fill-opacity:1.0; 
stroke:#FFFFFF; stroke-width:39.3701; stroke-opacity:1; 
stroke-linecap:round; stroke-linejoin:round;">
</g>
<g style="fill:#FFFFFF; fill-opacity:1.0; 
stroke:#FFFFFF; stroke-width:0; stroke-opacity:1; 
stroke-linecap:round; stroke-linejoin:round;">
<circle cx="64827.6" cy="17559.1" r="157.48" /> 
</g>
<g style="fill:#FFFFFF; fill-opacity:1.0; 
stroke:#FFFFFF; stroke-width:39.3701; stroke-opacity:1; 
stroke-linecap:round; stroke-linejoin:round;">
</g>
<g style="fill:#FFFFFF; fill-opacity:1.0; 
stroke:#FFFFFF; stroke-width:0; stroke-opacity:1; 
stroke-linecap:round; stroke-linejoin:round;">
<circle cx="59213.5" cy="17637.8" r="157.48" /> 
</g>
<g style="fill:#FFFFFF; fill-opacity:1.0; 
stroke:#FFFFFF; stroke-width:39.3701; stroke-opacity:1; 
stroke-linecap:round; stroke-linejoin:round;">
</g>
<g style="fill:#FFFFFF; fill-opacity:1.0; 
stroke:#FFFFFF; stroke-width:0; stroke-opacity:1; 
stroke-linecap:round; stroke-linejoin:round;">
<circle cx="58213.5" cy="17637.8" r="157.48" /> 
</g>
<g style="fill:#FFFFFF; fill-opacity:1.0; 
stroke:#FFFFFF; stroke-width:39.3701; stroke-opacity:1; 
stroke-linecap:round; stroke-linejoin:round;">
</g>
<g style="fill:#FFFFFF; fill-opacity:1.0; 
stroke:#FFFFFF; stroke-width:0; stroke-opacity:1; 
stroke-linecap:round; stroke-linejoin:round;">
<circle cx="43780.4" cy="17480.3" r="157.48" /> 
</g>
<g style="fill:#FFFFFF; fill-opacity:1.0; 
stroke:#FFFFFF; stroke-width:39.3701; stroke-opacity:1; 
stroke-linecap:round; stroke-linejoin:round;">
</g>
<g style="fill:#FFFFFF; fill-opacity:1.0; 
stroke:#FFFFFF; stroke-width:0; stroke-opacity:1; 
stroke-linecap:round; stroke-linejoin:round;">
<circle cx="42780.4" cy="17480.3" r="157.48" /> 
</g>
<g style="fill:#FFFFFF; fill-opacity:1.0; 
stroke:#FFFFFF; stroke-width:39.3701; stroke-opacity:1; 
stroke-linecap:round; stroke-linejoin:round;">
</g>
<g style="fill:#FFFFFF; fill-opacity:1.0; 
stroke:#FFFFFF; stroke-width:0; stroke-opacity:1; 
stroke-linecap:round; stroke-linejoin:round;">
<circle cx="50315.8" cy="17559.1" r="157.48" /> 
</g>
<g style="fill:#FFFFFF; fill-opacity:1.0; 
stroke:#FFFFFF; stroke-width:39.3701; stroke-opacity:1; 
stroke-linecap:round; stroke-linejoin:round;">
</g>
<g style="fill:#FFFFFF; fill-opacity:1.0; 
stroke:#FFFFFF; stroke-width:0; stroke-opacity:1; 
stroke-linecap:round; stroke-linejoin:round;">
<circle cx="49315.8" cy="17559.1" r="157.48" /> 
</g>
<g style="fill:#FFFFFF; fill-opacity:1.0; 
stroke:#FFFFFF; stroke-width:39.3701; stroke-opacity:1; 
stroke-linecap:round; stroke-linejoin:round;">
</g>
<g style="fill:#FFFFFF; fill-opacity:1.0; 
stroke:#FFFFFF; stroke-width:0; stroke-opacity:1; 
stroke-linecap:round; stroke-linejoin:round;">
<circle cx="59134.7" cy="56692.9" r="157.48" /> 
</g>
<g style="fill:#FFFFFF; fill-opacity:1.0; 
stroke:#FFFFFF; stroke-width:39.3701; stroke-opacity:1; 
stroke-linecap:round; stroke-linejoin:round;">
</g>
<g style="fill:#FFFFFF; fill-opacity:1.0; 
stroke:#FFFFFF; stroke-width:0; stroke-opacity:1; 
stroke-linecap:round; stroke-linejoin:round;">
<circle cx="58134.7" cy="56692.9" r="157.48" /> 
</g>
<g style="fill:#FFFFFF; fill-opacity:1.0; 
stroke:#FFFFFF; stroke-width:39.3701; stroke-opacity:1; 
stroke-linecap:round; stroke-linejoin:round;">
</g>
<g style="fill:#FFFFFF; fill-opacity:1.0; 
stroke:#FFFFFF; stroke-width:0; stroke-opacity:1; 
stroke-linecap:round; stroke-linejoin:round;">
<circle cx="65748.9" cy="56850.4" r="157.48" /> 
</g>
<g style="fill:#FFFFFF; fill-opacity:1.0; 
stroke:#FFFFFF; stroke-width:39.3701; stroke-opacity:1; 
stroke-linecap:round; stroke-linejoin:round;">
</g>
<g style="fill:#FFFFFF; fill-opacity:1.0; 
stroke:#FFFFFF; stroke-width:0; stroke-opacity:1; 
stroke-linecap:round; stroke-linejoin:round;">
<circle cx="64748.9" cy="56850.4" r="157.48" /> 
</g>
<g style="fill:#FFFFFF; fill-opacity:1.0; 
stroke:#FFFFFF; stroke-width:39.3701; stroke-opacity:1; 
stroke-linecap:round; stroke-linejoin:round;">
</g>
<g style="fill:#FFFFFF; fill-opacity:1.0; 
stroke:#FFFFFF; stroke-width:0; stroke-opacity:1; 
stroke-linecap:round; stroke-linejoin:round;">
<circle cx="50315.8" cy="56692.9" r="157.48" /> 
</g>
<g style="fill:#FFFFFF; fill-opacity:1.0; 
stroke:#FFFFFF; stroke-width:39.3701; stroke-opacity:1; 
stroke-linecap:round; stroke-linejoin:round;">
</g>
<g style="fill:#FFFFFF; fill-opacity:1.0; 
stroke:#FFFFFF; stroke-width:0; stroke-opacity:1; 
stroke-linecap:round; stroke-linejoin:round;">
<circle cx="49315.8" cy="56692.9" r="157.48" /> 
</g>
<g style="fill:#FFFFFF; fill-opacity:1.0; 
stroke:#FFFFFF; stroke-width:39.3701; stroke-opacity:1; 
stroke-linecap:round; stroke-linejoin:round;">
</g>
<g style="fill:#FFFFFF; fill-opacity:1.0; 
stroke:#FFFFFF; stroke-width:0; stroke-opacity:1; 
stroke-linecap:round; stroke-linejoin:round;">
<circle cx="43622.9" cy="56535.4" r="157.48" /> 
</g>
<g style="fill:#FFFFFF; fill-opacity:1.0; 
stroke:#FFFFFF; stroke-width:39.3701; stroke-opacity:1; 
stroke-linecap:round; stroke-linejoin:round;">
</g>
<g style="fill:#FFFFFF; fill-opacity:1.0; 
stroke:#FFFFFF; stroke-width:0; stroke-opacity:1; 
stroke-linecap:round; stroke-linejoin:round;">
<circle cx="42622.9" cy="56535.4" r="157.48" /> 
</g>
<g style="fill:#FFFFFF; fill-opacity:1.0; 
stroke:#FFFFFF; stroke-width:39.3701; stroke-opacity:1; 
stroke-linecap:round; stroke-linejoin:round;">
</g>
<g style="fill:#FFFFFF; fill-opacity:1.0; 
stroke:#FFFFFF; stroke-width:0; stroke-opacity:1; 
stroke-linecap:round; stroke-linejoin:round;">
<circle cx="59140.4" cy="39303.9" r="157.48" /> 
</g>
<g style="fill:#FFFFFF; fill-opacity:1.0; 
stroke:#FFFFFF; stroke-width:39.3701; stroke-opacity:1; 
stroke-linecap:round; stroke-linejoin:round;">
</g>
<g style="fill:#FFFFFF; fill-opacity:1.0; 
stroke:#FFFFFF; stroke-width:0; stroke-opacity:1; 
stroke-linecap:round; stroke-linejoin:round;">
<circle cx="59140.4" cy="40303.9" r="157.48" /> 
</g>
<g style="fill:#FFFFFF; fill-opacity:1.0; 
stroke:#FFFFFF; stroke-width:39.3701; stroke-opacity:1; 
stroke-linecap:round; stroke-linejoin:round;">
</g>
<g style="fill:#FFFFFF; fill-opacity:1.0; 
stroke:#FFFFFF; stroke-width:0; stroke-opacity:1; 
stroke-linecap:round; stroke-linejoin:round;">
<circle cx="65728.4" cy="39303.9" r="157.48" /> 
</g>
<g style="fill:#FFFFFF; fill-opacity:1.0; 
stroke:#FFFFFF; stroke-width:39.3701; stroke-opacity:1; 
stroke-linecap:round; stroke-linejoin:round;">
</g>
<g style="fill:#FFFFFF; fill-opacity:1.0; 
stroke:#FFFFFF; stroke-width:0; stroke-opacity:1; 
stroke-linecap:round; stroke-linejoin:round;">
<circle cx="65728.4" cy="40303.9" r="157.48" /> 
</g>
<g style="fill:#FFFFFF; fill-opacity:1.0; 
stroke:#FFFFFF; stroke-width:39.3701; stroke-opacity:1; 
stroke-linecap:round; stroke-linejoin:round;">
</g>
<g style="fill:#FFFFFF; fill-opacity:1.0; 
stroke:#FFFFFF; stroke-width:0; stroke-opacity:1; 
stroke-linecap:round; stroke-linejoin:round;">
<circle cx="50270.4" cy="39302.9" r="157.48" /> 
</g>
<g style="fill:#FFFFFF; fill-opacity:1.0; 
stroke:#FFFFFF; stroke-width:39.3701; stroke-opacity:1; 
stroke-linecap:round; stroke-linejoin:round;">
</g>
<g style="fill:#FFFFFF; fill-opacity:1.0; 
stroke:#FFFFFF; stroke-width:0; stroke-opacity:1; 
stroke-linecap:round; stroke-linejoin:round;">
<circle cx="50270.4" cy="40302.9" r="157.48" /> 
</g>
<g style="fill:#FFFFFF; fill-opacity:1.0; 
stroke:#FFFFFF; stroke-width:39.3701; stroke-opacity:1; 
stroke-linecap:round; stroke-linejoin:round;">
</g>
<g style="fill:#FFFFFF; fill-opacity:1.0; 
stroke:#FFFFFF; stroke-width:0; stroke-opacity:1; 
stroke-linecap:round; stroke-linejoin:round;">
<circle cx="43687.4" cy="39295.9" r="157.48" /> 
</g>
<g style="fill:#FFFFFF; fill-opacity:1.0; 
stroke:#FFFFFF; stroke-width:39.3701; stroke-opacity:1; 
stroke-linecap:round; stroke-linejoin:round;">
</g>
<g style="fill:#FFFFFF; fill-opacity:1.0; 
stroke:#FFFFFF; stroke-width:0; stroke-opacity:1; 
stroke-linecap:round; stroke-linejoin:round;">
<circle cx="43687.4" cy="40295.9" r="157.48" /> 
</g>
<g style="fill:#FFFFFF; fill-opacity:1.0; 
stroke:#FFFFFF; stroke-width:39.3701; stroke-opacity:1; 
stroke-linecap:round; stroke-linejoin:round;">
</g>
<g style="fill:#000000; fill-opacity:1.0; 
stroke:#000000; stroke-width:39.3701; stroke-opacity:1; 
stroke-linecap:round; stroke-linejoin:round;">
</g>
<g style="fill:#000000; fill-opacity:1.0; 
stroke:#000000; stroke-width:0; stroke-opacity:1; 
stroke-linecap:round; stroke-linejoin:round;">
<circle cx="65802.5" cy="34916.7" r="472.441" /> 
</g>
<g style="fill:#000000; fill-opacity:1.0; 
stroke:#000000; stroke-width:39.3701; stroke-opacity:1; 
stroke-linecap:round; stroke-linejoin:round;">
</g>
<g style="fill:#000000; fill-opacity:1.0; 
stroke:#000000; stroke-width:0; stroke-opacity:1; 
stroke-linecap:round; stroke-linejoin:round;">
<circle cx="65802.5" cy="33916.7" r="472.441" /> 
</g>
<g style="fill:#000000; fill-opacity:1.0; 
stroke:#000000; stroke-width:39.3701; stroke-opacity:1; 
stroke-linecap:round; stroke-linejoin:round;">
</g>
<g style="fill:#000000; fill-opacity:1.0; 
stroke:#000000; stroke-width:0; stroke-opacity:1; 
stroke-linecap:round; stroke-linejoin:round;">
<circle cx="59219.5" cy="34909.7" r="472.441" /> 
</g>
<g style="fill:#000000; fill-opacity:1.0; 
stroke:#000000; stroke-width:39.3701; stroke-opacity:1; 
stroke-linecap:round; stroke-linejoin:round;">
</g>
<g style="fill:#000000; fill-opacity:1.0; 
stroke:#000000; stroke-width:0; stroke-opacity:1; 
stroke-linecap:round; stroke-linejoin:round;">
<circle cx="59219.5" cy="33909.7" r="472.441" /> 
</g>
<g style="fill:#000000; fill-opacity:1.0; 
stroke:#000000; stroke-width:39.3701; stroke-opacity:1; 
stroke-linecap:round; stroke-linejoin:round;">
</g>
<g style="fill:#000000; fill-opacity:1.0; 
stroke:#000000; stroke-width:0; stroke-opacity:1; 
stroke-linecap:round; stroke-linejoin:round;">
<circle cx="43761.5" cy="34908.7" r="472.441" /> 
</g>
<g style="fill:#000000; fill-opacity:1.0; 
stroke:#000000; stroke-width:39.3701; stroke-opacity:1; 
stroke-linecap:round; stroke-linejoin:round;">
</g>
<g style="fill:#000000; fill-opacity:1.0; 
stroke:#000000; stroke-width:0; stroke-opacity:1; 
stroke-linecap:round; stroke-linejoin:round;">
<circle cx="43761.5" cy="33908.7" r="472.441" /> 
</g>
<g style="fill:#000000; fill-opacity:1.0; 
stroke:#000000; stroke-width:39.3701; stroke-opacity:1; 
stroke-linecap:round; stroke-linejoin:round;">
</g>
<g style="fill:#000000; fill-opacity:1.0; 
stroke:#000000; stroke-width:0; stroke-opacity:1; 
stroke-linecap:round; stroke-linejoin:round;">
<circle cx="50349.5" cy="34908.7" r="472.441" /> 
</g>
<g style="fill:#000000; fill-opacity:1.0; 
stroke:#000000; stroke-width:39.3701; stroke-opacity:1; 
stroke-linecap:round; stroke-linejoin:round;">
</g>
<g style="fill:#000000; fill-opacity:1.0; 
stroke:#000000; stroke-width:0; stroke-opacity:1; 
stroke-linecap:round; stroke-linejoin:round;">
<circle cx="50349.5" cy="33908.7" r="472.441" /> 
</g>
<g style="fill:#000000; fill-opacity:1.0; 
stroke:#000000; stroke-width:39.3701; stroke-opacity:1; 
stroke-linecap:round; stroke-linejoin:round;">
</g>
<g style="fill:#000000; fill-opacity:1.0; 
stroke:#000000; stroke-width:0; stroke-opacity:1; 
stroke-linecap:round; stroke-linejoin:round;">
<circle cx="65827.6" cy="17559.1" r="472.441" /> 
</g>
<g style="fill:#000000; fill-opacity:1.0; 
stroke:#000000; stroke-width:39.3701; stroke-opacity:1; 
stroke-linecap:round; stroke-linejoin:round;">
</g>
<g style="fill:#000000; fill-opacity:1.0; 
stroke:#000000; stroke-width:0; stroke-opacity:1; 
stroke-linecap:round; stroke-linejoin:round;">
<circle cx="64827.6" cy="17559.1" r="472.441" /> 
</g>
<g style="fill:#000000; fill-opacity:1.0; 
stroke:#000000; stroke-width:39.3701; stroke-opacity:1; 
stroke-linecap:round; stroke-linejoin:round;">
</g>
<g style="fill:#000000; fill-opacity:1.0; 
stroke:#000000; stroke-width:0; stroke-opacity:1; 
stroke-linecap:round; stroke-linejoin:round;">
<circle cx="59213.5" cy="17637.8" r="472.441" /> 
</g>
<g style="fill:#000000; fill-opacity:1.0; 
stroke:#000000; stroke-width:39.3701; stroke-opacity:1; 
stroke-linecap:round; stroke-linejoin:round;">
</g>
<g style="fill:#000000; fill-opacity:1.0; 
stroke:#000000; stroke-width:0; stroke-opacity:1; 
stroke-linecap:round; stroke-linejoin:round;">
<circle cx="58213.5" cy="17637.8" r="472.441" /> 
</g>
<g style="fill:#000000; fill-opacity:1.0; 
stroke:#000000; stroke-width:39.3701; stroke-opacity:1; 
stroke-linecap:round; stroke-linejoin:round;">
</g>
<g style="fill:#000000; fill-opacity:1.0; 
stroke:#000000; stroke-width:0; stroke-opacity:1; 
stroke-linecap:round; stroke-linejoin:round;">
<circle cx="43780.4" cy="17480.3" r="472.441" /> 
</g>
<g style="fill:#000000; fill-opacity:1.0; 
stroke:#000000; stroke-width:39.3701; stroke-opacity:1; 
stroke-linecap:round; stroke-linejoin:round;">
</g>
<g style="fill:#000000; fill-opacity:1.0; 
stroke:#000000; stroke-width:0; stroke-opacity:1; 
stroke-linecap:round; stroke-linejoin:round;">
<circle cx="42780.4" cy="17480.3" r="472.441" /> 
</g>
<g style="fill:#000000; fill-opacity:1.0; 
stroke:#000000; stroke-width:39.3701; stroke-opacity:1; 
stroke-linecap:round; stroke-linejoin:round;">
</g>
<g style="fill:#000000; fill-opacity:1.0; 
stroke:#000000; stroke-width:0; stroke-opacity:1; 
stroke-linecap:round; stroke-linejoin:round;">
<circle cx="50315.8" cy="17559.1" r="472.441" /> 
</g>
<g style="fill:#000000; fill-opacity:1.0; 
stroke:#000000; stroke-width:39.3701; stroke-opacity:1; 
stroke-linecap:round; stroke-linejoin:round;">
</g>
<g style="fill:#000000; fill-opacity:1.0; 
stroke:#000000; stroke-width:0; stroke-opacity:1; 
stroke-linecap:round; stroke-linejoin:round;">
<circle cx="49315.8" cy="17559.1" r="472.441" /> 
</g>
<g style="fill:#000000; fill-opacity:1.0; 
stroke:#000000; stroke-width:39.3701; stroke-opacity:1; 
stroke-linecap:round; stroke-linejoin:round;">
</g>
<g style="fill:#000000; fill-opacity:1.0; 
stroke:#000000; stroke-width:0; stroke-opacity:1; 
stroke-linecap:round; stroke-linejoin:round;">
<circle cx="59134.7" cy="56692.9" r="472.441" /> 
</g>
<g style="fill:#000000; fill-opacity:1.0; 
stroke:#000000; stroke-width:39.3701; stroke-opacity:1; 
stroke-linecap:round; stroke-linejoin:round;">
</g>
<g style="fill:#000000; fill-opacity:1.0; 
stroke:#000000; stroke-width:0; stroke-opacity:1; 
stroke-linecap:round; stroke-linejoin:round;">
<circle cx="58134.7" cy="56692.9" r="472.441" /> 
</g>
<g style="fill:#000000; fill-opacity:1.0; 
stroke:#000000; stroke-width:39.3701; stroke-opacity:1; 
stroke-linecap:round; stroke-linejoin:round;">
</g>
<g style="fill:#000000; fill-opacity:1.0; 
stroke:#000000; stroke-width:0; stroke-opacity:1; 
stroke-linecap:round; stroke-linejoin:round;">
<circle cx="65748.9" cy="56850.4" r="472.441" /> 
</g>
<g style="fill:#000000; fill-opacity:1.0; 
stroke:#000000; stroke-width:39.3701; stroke-opacity:1; 
stroke-linecap:round; stroke-linejoin:round;">
</g>
<g style="fill:#000000; fill-opacity:1.0; 
stroke:#000000; stroke-width:0; stroke-opacity:1; 
stroke-linecap:round; stroke-linejoin:round;">
<circle cx="64748.9" cy="56850.4" r="472.441" /> 
</g>
<g style="fill:#000000; fill-opacity:1.0; 
stroke:#000000; stroke-width:39.3701; stroke-opacity:1; 
stroke-linecap:round; stroke-linejoin:round;">
</g>
<g style="fill:#000000; fill-opacity:1.0; 
stroke:#000000; stroke-width:0; stroke-opacity:1; 
stroke-linecap:round; stroke-linejoin:round;">
<circle cx="50315.8" cy="56692.9" r="472.441" /> 
</g>
<g style="fill:#000000; fill-opacity:1.0; 
stroke:#000000; stroke-width:39.3701; stroke-opacity:1; 
stroke-linecap:round; stroke-linejoin:round;">
</g>
<g style="fill:#000000; fill-opacity:1.0; 
stroke:#000000; stroke-width:0; stroke-opacity:1; 
stroke-linecap:round; stroke-linejoin:round;">
<circle cx="49315.8" cy="56692.9" r="472.441" /> 
</g>
<g style="fill:#000000; fill-opacity:1.0; 
stroke:#000000; stroke-width:39.3701; stroke-opacity:1; 
stroke-linecap:round; stroke-linejoin:round;">
</g>
<g style="fill:#000000; fill-opacity:1.0; 
stroke:#000000; stroke-width:0; stroke-opacity:1; 
stroke-linecap:round; stroke-linejoin:round;">
<circle cx="43622.9" cy="56535.4" r="472.441" /> 
</g>
<g style="fill:#000000; fill-opacity:1.0; 
stroke:#000000; stroke-width:39.3701; stroke-opacity:1; 
stroke-linecap:round; stroke-linejoin:round;">
</g>
<g style="fill:#000000; fill-opacity:1.0; 
stroke:#000000; stroke-width:0; stroke-opacity:1; 
stroke-linecap:round; stroke-linejoin:round;">
<circle cx="42622.9" cy="56535.4" r="472.441" /> 
</g>
<g style="fill:#000000; fill-opacity:1.0; 
stroke:#000000; stroke-width:39.3701; stroke-opacity:1; 
stroke-linecap:round; stroke-linejoin:round;">
</g>
<g style="fill:#000000; fill-opacity:1.0; 
stroke:#000000; stroke-width:0; stroke-opacity:1; 
stroke-linecap:round; stroke-linejoin:round;">
<circle cx="59140.4" cy="39303.9" r="472.441" /> 
</g>
<g style="fill:#000000; fill-opacity:1.0; 
stroke:#000000; stroke-width:39.3701; stroke-opacity:1; 
stroke-linecap:round; stroke-linejoin:round;">
</g>
<g style="fill:#000000; fill-opacity:1.0; 
stroke:#000000; stroke-width:0; stroke-opacity:1; 
stroke-linecap:round; stroke-linejoin:round;">
<circle cx="59140.4" cy="40303.9" r="472.441" /> 
</g>
<g style="fill:#000000; fill-opacity:1.0; 
stroke:#000000; stroke-width:39.3701; stroke-opacity:1; 
stroke-linecap:round; stroke-linejoin:round;">
</g>
<g style="fill:#000000; fill-opacity:1.0; 
stroke:#000000; stroke-width:0; stroke-opacity:1; 
stroke-linecap:round; stroke-linejoin:round;">
<circle cx="65728.4" cy="39303.9" r="472.441" /> 
</g>
<g style="fill:#000000; fill-opacity:1.0; 
stroke:#000000; stroke-width:39.3701; stroke-opacity:1; 
stroke-linecap:round; stroke-linejoin:round;">
</g>
<g style="fill:#000000; fill-opacity:1.0; 
stroke:#000000; stroke-width:0; stroke-opacity:1; 
stroke-linecap:round; stroke-linejoin:round;">
<circle cx="65728.4" cy="40303.9" r="472.441" /> 
</g>
<g style="fill:#000000; fill-opacity:1.0; 
stroke:#000000; stroke-width:39.3701; stroke-opacity:1; 
stroke-linecap:round; stroke-linejoin:round;">
</g>
<g style="fill:#000000; fill-opacity:1.0; 
stroke:#000000; stroke-width:0; stroke-opacity:1; 
stroke-linecap:round; stroke-linejoin:round;">
<circle cx="50270.4" cy="39302.9" r="472.441" /> 
</g>
<g style="fill:#000000; fill-opacity:1.0; 
stroke:#000000; stroke-width:39.3701; stroke-opacity:1; 
stroke-linecap:round; stroke-linejoin:round;">
</g>
<g style="fill:#000000; fill-opacity:1.0; 
stroke:#000000; stroke-width:0; stroke-opacity:1; 
stroke-linecap:round; stroke-linejoin:round;">
<circle cx="50270.4" cy="40302.9" r="472.441" /> 
</g>
<g style="fill:#000000; fill-opacity:1.0; 
stroke:#000000; stroke-width:39.3701; stroke-opacity:1; 
stroke-linecap:round; stroke-linejoin:round;">
</g>
<g style="fill:#000000; fill-opacity:1.0; 
stroke:#000000; stroke-width:0; stroke-opacity:1; 
stroke-linecap:round; stroke-linejoin:round;">
<circle cx="43687.4" cy="39295.9" r="472.441" /> 
</g>
<g style="fill:#000000; fill-opacity:1.0; 
stroke:#000000; stroke-width:39.3701; stroke-opacity:1; 
stroke-linecap:round; stroke-linejoin:round;">
</g>
<g style="fill:#000000; fill-opacity:1.0; 
stroke:#000000; stroke-width:0; stroke-opacity:1; 
stroke-linecap:round; stroke-linejoin:round;">
<circle cx="43687.4" cy="40295.9" r="472.441" /> 
</g>
<g style="fill:#000000; fill-opacity:1.0; 
stroke:#000000; stroke-width:39.3701; stroke-opacity:1; 
stroke-linecap:round; stroke-linejoin:round;">
</g>
<g style="fill:#000000; fill-opacity:0.0; 
stroke:#000000; stroke-width:39.3701; stroke-opacity:1; 
stroke-linecap:round; stroke-linejoin:round;">
</g>
<g style="fill:#000000; fill-opacity:0.0; 
stroke:#000000; stroke-width:118.11; stroke-opacity:1; 
stroke-linecap:round; stroke-linejoin:round;">
<path d="M45245 57753
L45836 57753
L45414 57556
L45836 57359
L45245 57359
" />
<path d="M45245 57078
L45836 57078
" />
<path d="M45301 56459
L45273 56487
L45245 56571
L45245 56628
L45273 56712
L45329 56768
L45386 56796
L45498 56825
L45582 56825
L45695 56796
L45751 56768
L45807 56712
L45836 56628
L45836 56571
L45807 56487
L45779 56459
" />
<path d="M45582 55672
L45611 55728
L45639 55756
L45695 55784
L45723 55784
L45779 55756
L45807 55728
L45836 55672
L45836 55559
L45807 55503
L45779 55475
L45723 55447
L45695 55447
L45639 55475
L45611 55503
L45582 55559
L45582 55672
L45554 55728
L45526 55756
L45470 55784
L45358 55784
L45301 55756
L45273 55728
L45245 55672
L45245 55559
L45273 55503
L45301 55475
L45358 55447
L45470 55447
L45526 55475
L45554 55503
L45582 55559
" />
<path d="M52017 57753
L52607 57753
L52185 57556
L52607 57359
L52017 57359
" />
<path d="M52017 57078
L52607 57078
" />
<path d="M52073 56459
L52045 56487
L52017 56571
L52017 56628
L52045 56712
L52101 56768
L52157 56796
L52270 56825
L52354 56825
L52467 56796
L52523 56768
L52579 56712
L52607 56628
L52607 56571
L52579 56487
L52551 56459
" />
<path d="M52607 55812
L52607 55419
L52017 55672
" />
<path d="M60757 57674
L61347 57674
L60926 57477
L61347 57280
L60757 57280
" />
<path d="M60757 56999
L61347 56999
" />
<path d="M60813 56380
L60785 56408
L60757 56493
L60757 56549
L60785 56633
L60841 56690
L60897 56718
L61010 56746
L61094 56746
L61207 56718
L61263 56690
L61319 56633
L61347 56549
L61347 56493
L61319 56408
L61291 56380
" />
<path d="M61347 55424
L61347 55537
L61319 55593
L61291 55621
L61207 55677
L61094 55705
L60869 55705
L60813 55677
L60785 55649
L60757 55593
L60757 55480
L60785 55424
L60813 55396
L60869 55368
L61010 55368
L61066 55396
L61094 55424
L61122 55480
L61122 55593
L61094 55649
L61066 55677
L61010 55705
" />
<path d="M67528 57674
L68119 57674
L67697 57477
L68119 57280
L67528 57280
" />
<path d="M67528 56999
L68119 56999
" />
<path d="M67585 56380
L67557 56408
L67528 56493
L67528 56549
L67557 56633
L67613 56690
L67669 56718
L67782 56746
L67866 56746
L67978 56718
L68035 56690
L68091 56633
L68119 56549
L68119 56493
L68091 56408
L68063 56380
" />
<path d="M68119 55396
L68119 55677
L67838 55705
L67866 55677
L67894 55621
L67894 55480
L67866 55424
L67838 55396
L67782 55368
L67641 55368
L67585 55396
L67557 55424
L67528 55480
L67528 55621
L67557 55677
L67585 55705
" />
<path d="M62725 18619
L63316 18619
L62894 18422
L63316 18225
L62725 18225
" />
<path d="M62725 17944
L63316 17944
" />
<path d="M62782 17325
L62753 17353
L62725 17438
L62725 17494
L62753 17578
L62810 17634
L62866 17663
L62978 17691
L63063 17691
L63175 17663
L63232 17634
L63288 17578
L63316 17494
L63316 17438
L63288 17353
L63260 17325
" />
<path d="M63119 16369
L62725 16369
" />
<path d="M63344 16510
L62922 16650
L62922 16285
" />
<path d="M56032 18697
L56623 18697
L56201 18501
L56623 18304
L56032 18304
" />
<path d="M56032 18023
L56623 18023
" />
<path d="M56089 17404
L56061 17432
L56032 17516
L56032 17573
L56061 17657
L56117 17713
L56173 17741
L56286 17769
L56370 17769
L56482 17741
L56539 17713
L56595 17657
L56623 17573
L56623 17516
L56595 17432
L56567 17404
" />
<path d="M56623 16757
L56623 16392
L56398 16588
L56398 16504
L56370 16448
L56342 16420
L56286 16392
L56145 16392
L56089 16420
L56061 16448
L56032 16504
L56032 16673
L56061 16729
L56089 16757
" />
<path d="M47214 18619
L47804 18619
L47382 18422
L47804 18225
L47214 18225
" />
<path d="M47214 17944
L47804 17944
" />
<path d="M47270 17325
L47242 17353
L47214 17438
L47214 17494
L47242 17578
L47298 17634
L47354 17663
L47467 17691
L47551 17691
L47663 17663
L47720 17634
L47776 17578
L47804 17494
L47804 17438
L47776 17353
L47748 17325
" />
<path d="M47748 16650
L47776 16622
L47804 16566
L47804 16425
L47776 16369
L47748 16341
L47692 16313
L47635 16313
L47551 16341
L47214 16678
L47214 16313
" />
<path d="M40284 18619
L40875 18619
L40453 18422
L40875 18225
L40284 18225
" />
<path d="M40284 17944
L40875 17944
" />
<path d="M40341 17325
L40313 17353
L40284 17438
L40284 17494
L40313 17578
L40369 17634
L40425 17663
L40537 17691
L40622 17691
L40734 17663
L40791 17634
L40847 17578
L40875 17494
L40875 17438
L40847 17353
L40819 17325
" />
<path d="M40284 16313
L40284 16650
" />
<path d="M40284 16482
L40875 16482
L40791 16538
L40734 16594
L40706 16650
" />
</g>
<g style="fill:#000000; fill-opacity:0.0; 
stroke:#000000; stroke-width:393.701; stroke-opacity:1; 
stroke-linecap:round; stroke-linejoin:round;">
<path d="M37344 49655
L38281 49655
L38281 45718
" />
<path d="M72295 49152
L72014 49340
L71545 49340
L71358 49152
L71264 48965
L71170 48590
L71170 48215
L71264 47840
L71358 47652
L71545 47465
L71920 47277
L72108 47090
L72201 46902
L72295 46527
L72295 46152
L72201 45778
L72108 45590
L71920 45403
L71451 45403
L71170 45590
" />
<path d="M39539 29310
L39258 29497
L38789 29497
L38602 29310
L38508 29122
L38414 28747
L38414 28372
L38508 27997
L38602 27810
L38789 27622
L39164 27435
L39352 27247
L39445 27060
L39539 26685
L39539 26310
L39445 25935
L39352 25748
L39164 25560
L38696 25560
L38414 25748
" />
<path d="M70808 29103
L71465 27229
" />
<path d="M71933 29103
L71933 25166
L71183 25166
L70996 25354
L70902 25541
L70808 25916
L70808 26479
L70902 26854
L70996 27041
L71183 27229
L71933 27229
" />
</g>
<g style="fill:#000000; fill-opacity:0.0; 
stroke:#000000; stroke-width:118.11; stroke-opacity:1; 
stroke-linecap:round; stroke-linejoin:round;">
<path d="M43808 58467
L43358 58467
" />
<path d="M43583 58692
L43583 58242
" />
<path d="M42627 58467
L42177 58467
" />
<path d="M50737 58467
L50287 58467
" />
<path d="M49556 58467
L49106 58467
" />
<path d="M49331 58692
L49331 58242
" />
<path d="M66013 58546
L65563 58546
" />
<path d="M64832 58546
L64382 58546
" />
<path d="M64607 58771
L64607 58321
" />
<path d="M59162 58309
L58712 58309
" />
<path d="M58937 58534
L58937 58084
" />
<path d="M57981 58309
L57531 58309
" />
<path d="M44202 16420
L43752 16420
" />
<path d="M43021 16420
L42571 16420
" />
<path d="M42796 16645
L42796 16195
" />
<path d="M50816 16498
L50366 16498
" />
<path d="M50591 16723
L50591 16273
" />
<path d="M49635 16498
L49185 16498
" />
<path d="M59635 16577
L59185 16577
" />
<path d="M58454 16577
L58004 16577
" />
<path d="M58229 16802
L58229 16352
" />
<path d="M66328 16577
L65878 16577
" />
<path d="M66103 16802
L66103 16352
" />
<path d="M65147 16577
L64697 16577
" />
<path d="M58209 15227
L58209 14637
L58068 14637
L57984 14665
L57928 14721
L57900 14777
L57872 14890
L57872 14974
L57900 15087
L57928 15143
L57984 15199
L58068 15227
L58209 15227
" />
<path d="M57394 15199
L57450 15227
L57562 15227
L57618 15199
L57647 15143
L57647 14918
L57618 14862
L57562 14834
L57450 14834
L57394 14862
L57365 14918
L57365 14974
L57647 15030
" />
<path d="M57169 14834
L57028 15227
L56887 14834
" />
<path d="M56662 15227
L56662 14834
" />
<path d="M56662 14637
L56690 14665
L56662 14693
L56634 14665
L56662 14637
L56662 14693
" />
<path d="M56128 15199
L56184 15227
L56297 15227
L56353 15199
L56381 15171
L56409 15115
L56409 14946
L56381 14890
L56353 14862
L56297 14834
L56184 14834
L56128 14862
" />
<path d="M55650 15199
L55706 15227
L55819 15227
L55875 15199
L55903 15143
L55903 14918
L55875 14862
L55819 14834
L55706 14834
L55650 14862
L55622 14918
L55622 14974
L55903 15030
" />
<path d="M54919 15002
L54469 15002
" />
<path d="M54188 15002
L53738 15002
" />
<path d="M53456 15002
L53007 15002
" />
<path d="M52725 15002
L52275 15002
" />
<path d="M52022 14693
L51994 14665
L51938 14637
L51797 14637
L51741 14665
L51713 14693
L51685 14749
L51685 14805
L51713 14890
L52050 15227
L51685 15227
" />
<path d="M57737 59637
L57737 59046
L57596 59046
L57512 59074
L57455 59131
L57427 59187
L57399 59299
L57399 59384
L57427 59496
L57455 59552
L57512 59609
L57596 59637
L57737 59637
" />
<path d="M56921 59609
L56977 59637
L57090 59637
L57146 59609
L57174 59552
L57174 59327
L57146 59271
L57090 59243
L56977 59243
L56921 59271
L56893 59327
L56893 59384
L57174 59440
" />
<path d="M56696 59243
L56555 59637
L56415 59243
" />
<path d="M56190 59637
L56190 59243
" />
<path d="M56190 59046
L56218 59074
L56190 59102
L56162 59074
L56190 59046
L56190 59102
" />
<path d="M55656 59609
L55712 59637
L55824 59637
L55881 59609
L55909 59580
L55937 59524
L55937 59356
L55909 59299
L55881 59271
L55824 59243
L55712 59243
L55656 59271
" />
<path d="M55178 59609
L55234 59637
L55346 59637
L55403 59609
L55431 59552
L55431 59327
L55403 59271
L55346 59243
L55234 59243
L55178 59271
L55149 59327
L55149 59384
L55431 59440
" />
<path d="M54446 59412
L53996 59412
" />
<path d="M53715 59412
L53265 59412
" />
<path d="M52984 59412
L52534 59412
" />
<path d="M52253 59412
L51803 59412
" />
<path d="M51212 59637
L51550 59637
" />
<path d="M51381 59637
L51381 59046
L51437 59131
L51494 59187
L51550 59215
" />
</g>
<g style="fill:#000000; fill-opacity:0.0; 
stroke:#000000; stroke-width:275.591; stroke-opacity:1; 
stroke-linecap:round; stroke-linejoin:round;">
<path d="M75197 19055
L75197 21574
" />
<path d="M34252 19055
L75197 19055
" />
<path d="M34252 21417
L34252 19055
" />
<path d="M75197 21417
L75197 36062
" />
<path d="M34252 35905
L34252 21417
" />
<path d="M34252 55118
L34331 55118
" />
<path d="M34252 38188
L34252 55118
" />
<path d="M75197 38188
L75197 55118
" />
<path d="M54489 55118
L75118 55118
" />
<path d="M54410 55118
L34252 55118
" />
<path d="M75197 38267
L75118 38267
" />
<path d="M75197 35905
L75197 38267
" />
<path d="M34252 35905
L34252 38267
" />
<path d="M75197 35905
L34252 35905
" />
<path d="M75197 38267
L34252 38267
" />
<path d="M43123 35543
L66359 35543
" />
<path d="M66359 35543
L66359 33378
" />
<path d="M66359 33378
L43171 33378
" />
<path d="M43171 33378
L43105 33378
" />
<path d="M43105 33378
L43105 35545
" />
<path d="M43105 35545
L43160 35545
" />
<path d="M66384 38666
L66329 38666
" />
<path d="M66384 40833
L66384 38666
" />
<path d="M66318 40833
L66384 40833
" />
<path d="M43130 40833
L66318 40833
" />
<path d="M43130 38668
L43130 40833
" />
<path d="M66366 38668
L43130 38668
" />
<path d="M76666 14008
L76450 14008
" />
<path d="M78202 15544
L76666 14008
" />
<path d="M78210 57830
L78210 15598
" />
<path d="M77690 58350
L78210 57830
" />
<path d="M75880 60160
L77690 58350
" />
<path d="M33490 60160
L75880 60160
" />
<path d="M31410 58080
L33490 60160
" />
<path d="M31410 15832
L31410 58080
" />
<path d="M33250 13992
L31410 15832
" />
<path d="M76626 13992
L33250 13992
" />
</g>
<g style="fill:#000000; fill-opacity:0.0; 
stroke:#000000; stroke-width:118.11; stroke-opacity:1; 
stroke-linecap:round; stroke-linejoin:round;">
<path d="M44151 36527
L43701 36527
" />
<path d="M43926 36752
L43926 36302
" />
<path d="M44151 37530
L43701 37530
" />
<path d="M50851 36353
L50401 36353
" />
<path d="M50851 37356
L50401 37356
" />
<path d="M50626 37581
L50626 37132
" />
<path d="M59558 36463
L59108 36463
" />
<path d="M59333 36688
L59333 36238
" />
<path d="M59558 37466
L59108 37466
" />
<path d="M66313 36363
L65863 36363
" />
<path d="M66313 37366
L65863 37366
" />
<path d="M66088 37591
L66088 37142
" />
</g>
<g style="fill:#000000; fill-opacity:0.0; 
stroke:#000000; stroke-width:78.7402; stroke-opacity:1; 
stroke-linecap:round; stroke-linejoin:round;">
<path d="M32868 30758
L32868 30767
" />
<path d="M32860 30750
L32868 30758
" />
<path d="M75165 57936
L34232 57936
" />
<path d="M75170 57932
L75160 57932
" />
<path d="M75170 16038
L75170 57932
" />
<path d="M34218 57731
L34218 57939
" />
<path d="M34218 16024
L34218 57720
" />
<path d="M34210 16024
L34210 16027
" />
<path d="M75154 16024
L34210 16024
" />
<path d="M34218 48843
L34215 48843
" />
<path d="M34221 48840
L34218 48843
" />
</g>
<g style="fill:#000000; fill-opacity:0.0; 
stroke:#000000; stroke-width:47.2441; stroke-opacity:1; 
stroke-linecap:round; stroke-linejoin:round;">
<path d="M65255 34416
L65255 33369
" />
<path d="M65255 33369
L66349 33369
" />
<path d="M66349 33369
L66349 34416
" />
<path d="M66349 34416
L65255 34416
" />
<path d="M65255 34916
L65255 35463
" />
<path d="M65255 35463
L65802 35463
" />
<path d="M58672 34409
L58672 33362
" />
<path d="M58672 33362
L59766 33362
" />
<path d="M59766 33362
L59766 34409
" />
<path d="M59766 34409
L58672 34409
" />
<path d="M58672 34909
L58672 35456
" />
<path d="M58672 35456
L59219 35456
" />
<path d="M43214 34408
L43214 33361
" />
<path d="M43214 33361
L44308 33361
" />
<path d="M44308 33361
L44308 34408
" />
<path d="M44308 34408
L43214 34408
" />
<path d="M43214 34908
L43214 35455
" />
<path d="M43214 35455
L43761 35455
" />
<path d="M49802 34408
L49802 33361
" />
<path d="M49802 33361
L50896 33361
" />
<path d="M50896 33361
L50896 34408
" />
<path d="M50896 34408
L49802 34408
" />
<path d="M49802 34908
L49802 35455
" />
<path d="M49802 35455
L50349 35455
" />
<path d="M65327 18106
L64280 18106
" />
<path d="M64280 18106
L64280 17011
" />
<path d="M64280 17011
L65327 17011
" />
<path d="M65327 17011
L65327 18106
" />
<path d="M65827 18106
L66374 18106
" />
<path d="M66374 18106
L66374 17559
" />
<path d="M58713 18185
L57666 18185
" />
<path d="M57666 18185
L57666 17090
" />
<path d="M57666 17090
L58713 17090
" />
<path d="M58713 17090
L58713 18185
" />
<path d="M59213 18185
L59760 18185
" />
<path d="M59760 18185
L59760 17637
" />
<path d="M43280 18027
L42233 18027
" />
<path d="M42233 18027
L42233 16933
" />
<path d="M42233 16933
L43280 16933
" />
<path d="M43280 16933
L43280 18027
" />
<path d="M43780 18027
L44327 18027
" />
<path d="M44327 18027
L44327 17480
" />
<path d="M49815 18106
L48768 18106
" />
<path d="M48768 18106
L48768 17011
" />
<path d="M48768 17011
L49815 17011
" />
<path d="M49815 17011
L49815 18106
" />
<path d="M50315 18106
L50863 18106
" />
<path d="M50863 18106
L50863 17559
" />
<path d="M58634 57240
L57587 57240
" />
<path d="M57587 57240
L57587 56145
" />
<path d="M57587 56145
L58634 56145
" />
<path d="M58634 56145
L58634 57240
" />
<path d="M59134 57240
L59681 57240
" />
<path d="M59681 57240
L59681 56692
" />
<path d="M65248 57397
L64201 57397
" />
<path d="M64201 57397
L64201 56303
" />
<path d="M64201 56303
L65248 56303
" />
<path d="M65248 56303
L65248 57397
" />
<path d="M65748 57397
L66296 57397
" />
<path d="M66296 57397
L66296 56850
" />
<path d="M49815 57240
L48768 57240
" />
<path d="M48768 57240
L48768 56145
" />
<path d="M48768 56145
L49815 56145
" />
<path d="M49815 56145
L49815 57240
" />
<path d="M50315 57240
L50863 57240
" />
<path d="M50863 57240
L50863 56692
" />
<path d="M43122 57082
L42075 57082
" />
<path d="M42075 57082
L42075 55988
" />
<path d="M42075 55988
L43122 55988
" />
<path d="M43122 55988
L43122 57082
" />
<path d="M43622 57082
L44170 57082
" />
<path d="M44170 57082
L44170 56535
" />
<path d="M59687 39803
L59687 40851
" />
<path d="M59687 40851
L58593 40851
" />
<path d="M58593 40851
L58593 39803
" />
<path d="M58593 39803
L59687 39803
" />
<path d="M59687 39303
L59687 38756
" />
<path d="M59687 38756
L59140 38756
" />
<path d="M66275 39803
L66275 40851
" />
<path d="M66275 40851
L65181 40851
" />
<path d="M65181 40851
L65181 39803
" />
<path d="M65181 39803
L66275 39803
" />
<path d="M66275 39303
L66275 38756
" />
<path d="M66275 38756
L65728 38756
" />
<path d="M50817 39802
L50817 40850
" />
<path d="M50817 40850
L49723 40850
" />
<path d="M49723 40850
L49723 39802
" />
<path d="M49723 39802
L50817 39802
" />
<path d="M50817 39302
L50817 38755
" />
<path d="M50817 38755
L50270 38755
" />
<path d="M44234 39795
L44234 40843
" />
<path d="M44234 40843
L43140 40843
" />
<path d="M43140 40843
L43140 39795
" />
<path d="M43140 39795
L44234 39795
" />
<path d="M44234 39295
L44234 38748
" />
<path d="M44234 38748
L43687 38748
" />
</g>
<g style="fill:#000000; fill-opacity:0.0; 
stroke:#000000; stroke-width:59.0551; stroke-opacity:1; 
stroke-linecap:round; stroke-linejoin:round;">
<path d="M66121 35642
L66121 35923
L66139 35979
L66177 36017
L66233 36035
L66271 36035
" />
<path d="M65727 36035
L65952 36035
" />
<path d="M65839 36035
L65839 35642
L65877 35698
L65914 35735
L65952 35754
" />
<path d="M65390 35642
L65465 35642
L65502 35660
L65521 35679
L65558 35735
L65577 35810
L65577 35960
L65558 35998
L65540 36017
L65502 36035
L65427 36035
L65390 36017
L65371 35998
L65352 35960
L65352 35867
L65371 35829
L65390 35810
L65427 35792
L65502 35792
L65540 35810
L65558 35829
L65577 35867
" />
<path d="M59538 35635
L59538 35916
L59556 35972
L59594 36010
L59650 36028
L59688 36028
" />
<path d="M59144 36028
L59369 36028
" />
<path d="M59256 36028
L59256 35635
L59294 35691
L59331 35728
L59369 35747
" />
<path d="M58788 35635
L58975 35635
L58994 35822
L58975 35803
L58938 35785
L58844 35785
L58807 35803
L58788 35822
L58769 35860
L58769 35953
L58788 35991
L58807 36010
L58844 36028
L58938 36028
L58975 36010
L58994 35991
" />
<path d="M44080 35634
L44080 35915
L44098 35971
L44136 36009
L44192 36027
L44230 36027
" />
<path d="M43686 36027
L43911 36027
" />
<path d="M43798 36027
L43798 35634
L43836 35690
L43873 35727
L43911 35746
" />
<path d="M43536 35671
L43517 35652
L43480 35634
L43386 35634
L43349 35652
L43330 35671
L43311 35709
L43311 35746
L43330 35802
L43555 36027
L43311 36027
" />
<path d="M50668 35634
L50668 35915
L50686 35971
L50724 36009
L50780 36027
L50818 36027
" />
<path d="M50274 36027
L50499 36027
" />
<path d="M50386 36027
L50386 35634
L50424 35690
L50461 35727
L50499 35746
" />
<path d="M49899 36027
L50124 36027
" />
<path d="M50012 36027
L50012 35634
L50049 35690
L50087 35727
L50124 35746
" />
<path d="M59271 38147
L59271 38428
L59290 38484
L59327 38522
L59384 38541
L59421 38541
" />
<path d="M59121 38147
L58877 38147
L59009 38297
L58952 38297
L58915 38316
L58896 38334
L58877 38372
L58877 38466
L58896 38503
L58915 38522
L58952 38541
L59065 38541
L59102 38522
L59121 38503
" />
<path d="M65859 38147
L65859 38428
L65878 38484
L65915 38522
L65972 38541
L66009 38541
" />
<path d="M65503 38278
L65503 38541
" />
<path d="M65597 38128
L65690 38409
L65447 38409
" />
<path d="M50401 38146
L50401 38427
L50420 38483
L50457 38521
L50514 38540
L50551 38540
" />
<path d="M50251 38146
L49989 38146
L50157 38540
" />
<path d="M43818 38139
L43818 38420
L43837 38476
L43874 38514
L43931 38533
L43968 38533
" />
<path d="M43574 38308
L43612 38289
L43631 38270
L43649 38233
L43649 38214
L43631 38176
L43612 38158
L43574 38139
L43499 38139
L43462 38158
L43443 38176
L43424 38214
L43424 38233
L43443 38270
L43462 38289
L43499 38308
L43574 38308
L43612 38326
L43631 38345
L43649 38383
L43649 38458
L43631 38495
L43612 38514
L43574 38533
L43499 38533
L43462 38514
L43443 38495
L43424 38458
L43424 38383
L43443 38345
L43462 38326
L43499 38308
" />
</g>
<g style="fill:#000000; fill-opacity:0.0; 
stroke:#000000; stroke-width:19.685; stroke-opacity:1; 
stroke-linecap:round; stroke-linejoin:round;">
<path d="M65172 35546
L65172 33302
" />
<path d="M65172 33302
L66432 33302
" />
<path d="M66432 33302
L66432 35546
" />
<path d="M66432 35546
L65172 35546
" />
<path d="M58589 35539
L58589 33295
" />
<path d="M58589 33295
L59849 33295
" />
<path d="M59849 33295
L59849 35539
" />
<path d="M59849 35539
L58589 35539
" />
<path d="M43131 35538
L43131 33294
" />
<path d="M43131 33294
L44391 33294
" />
<path d="M44391 33294
L44391 35538
" />
<path d="M44391 35538
L43131 35538
" />
<path d="M49719 35538
L49719 33294
" />
<path d="M49719 33294
L50979 33294
" />
<path d="M50979 33294
L50979 35538
" />
<path d="M50979 35538
L49719 35538
" />
<path d="M66457 18188
L64213 18188
" />
<path d="M64213 18188
L64213 16929
" />
<path d="M64213 16929
L66457 16929
" />
<path d="M66457 16929
L66457 18188
" />
<path d="M59843 18267
L57599 18267
" />
<path d="M57599 18267
L57599 17007
" />
<path d="M57599 17007
L59843 17007
" />
<path d="M59843 17007
L59843 18267
" />
<path d="M44410 18110
L42166 18110
" />
<path d="M42166 18110
L42166 16850
" />
<path d="M42166 16850
L44410 16850
" />
<path d="M44410 16850
L44410 18110
" />
<path d="M50945 18188
L48701 18188
" />
<path d="M48701 18188
L48701 16929
" />
<path d="M48701 16929
L50945 16929
" />
<path d="M50945 16929
L50945 18188
" />
<path d="M59764 57322
L57520 57322
" />
<path d="M57520 57322
L57520 56062
" />
<path d="M57520 56062
L59764 56062
" />
<path d="M59764 56062
L59764 57322
" />
<path d="M66378 57480
L64134 57480
" />
<path d="M64134 57480
L64134 56220
" />
<path d="M64134 56220
L66378 56220
" />
<path d="M66378 56220
L66378 57480
" />
<path d="M50945 57322
L48701 57322
" />
<path d="M48701 57322
L48701 56062
" />
<path d="M48701 56062
L50945 56062
" />
<path d="M50945 56062
L50945 57322
" />
<path d="M44252 57165
L42008 57165
" />
<path d="M42008 57165
L42008 55905
" />
<path d="M42008 55905
L44252 55905
" />
<path d="M44252 55905
L44252 57165
" />
<path d="M59770 38673
L59770 40918
" />
<path d="M59770 40918
L58510 40918
" />
<path d="M58510 40918
L58510 38673
" />
<path d="M58510 38673
L59770 38673
" />
<path d="M66358 38673
L66358 40918
" />
<path d="M66358 40918
L65098 40918
" />
<path d="M65098 40918
L65098 38673
" />
<path d="M65098 38673
L66358 38673
" />
<path d="M50900 38672
L50900 40917
" />
<path d="M50900 40917
L49640 40917
" />
<path d="M49640 40917
L49640 38672
" />
<path d="M49640 38672
L50900 38672
" />
<path d="M44317 38665
L44317 40910
" />
<path d="M44317 40910
L43057 40910
" />
<path d="M43057 40910
L43057 38665
" />
<path d="M43057 38665
L44317 38665
" />
</g>
<g style="fill:#000000; fill-opacity:0.0; 
stroke:#000000; stroke-width:39.3701; stroke-opacity:1; 
stroke-linecap:round; stroke-linejoin:round;">
<path d="M65302 35416
L65302 33416
" />
<path d="M65302 33416
L66302 33416
" />
<path d="M66302 33416
L66302 35416
" />
<path d="M66302 35416
L65302 35416
" />
<path d="M58719 35409
L58719 33409
" />
<path d="M58719 33409
L59719 33409
" />
<path d="M59719 33409
L59719 35409
" />
<path d="M59719 35409
L58719 35409
" />
<path d="M43261 35408
L43261 33408
" />
<path d="M43261 33408
L44261 33408
" />
<path d="M44261 33408
L44261 35408
" />
<path d="M44261 35408
L43261 35408
" />
<path d="M49849 35408
L49849 33408
" />
<path d="M49849 33408
L50849 33408
" />
<path d="M50849 33408
L50849 35408
" />
<path d="M50849 35408
L49849 35408
" />
<path d="M66327 18059
L64327 18059
" />
<path d="M64327 18059
L64327 17059
" />
<path d="M64327 17059
L66327 17059
" />
<path d="M66327 17059
L66327 18059
" />
<path d="M59713 18137
L57713 18137
" />
<path d="M57713 18137
L57713 17137
" />
<path d="M57713 17137
L59713 17137
" />
<path d="M59713 17137
L59713 18137
" />
<path d="M44280 17980
L42280 17980
" />
<path d="M42280 17980
L42280 16980
" />
<path d="M42280 16980
L44280 16980
" />
<path d="M44280 16980
L44280 17980
" />
<path d="M50815 18059
L48815 18059
" />
<path d="M48815 18059
L48815 17059
" />
<path d="M48815 17059
L50815 17059
" />
<path d="M50815 17059
L50815 18059
" />
<path d="M59634 57192
L57634 57192
" />
<path d="M57634 57192
L57634 56192
" />
<path d="M57634 56192
L59634 56192
" />
<path d="M59634 56192
L59634 57192
" />
<path d="M66248 57350
L64248 57350
" />
<path d="M64248 57350
L64248 56350
" />
<path d="M64248 56350
L66248 56350
" />
<path d="M66248 56350
L66248 57350
" />
<path d="M50815 57192
L48815 57192
" />
<path d="M48815 57192
L48815 56192
" />
<path d="M48815 56192
L50815 56192
" />
<path d="M50815 56192
L50815 57192
" />
<path d="M44122 57035
L42122 57035
" />
<path d="M42122 57035
L42122 56035
" />
<path d="M42122 56035
L44122 56035
" />
<path d="M44122 56035
L44122 57035
" />
<path d="M59640 38803
L59640 40803
" />
<path d="M59640 40803
L58640 40803
" />
<path d="M58640 40803
L58640 38803
" />
<path d="M58640 38803
L59640 38803
" />
<path d="M66228 38803
L66228 40803
" />
<path d="M66228 40803
L65228 40803
" />
<path d="M65228 40803
L65228 38803
" />
<path d="M65228 38803
L66228 38803
" />
<path d="M50770 38802
L50770 40802
" />
<path d="M50770 40802
L49770 40802
" />
<path d="M49770 40802
L49770 38802
" />
<path d="M49770 38802
L50770 38802
" />
<path d="M44187 38795
L44187 40795
" />
<path d="M44187 40795
L43187 40795
" />
<path d="M43187 40795
L43187 38795
" />
<path d="M43187 38795
L44187 38795
" />
</g>
<g style="fill:#000000; fill-opacity:0.0; 
stroke:#000000; stroke-width:59.0551; stroke-opacity:1; 
stroke-linecap:round; stroke-linejoin:round;">
<path d="M67152 33153
L67152 32760
L67021 33041
L66889 32760
L66889 33153
" />
<path d="M66702 33153
L66702 32891
" />
<path d="M66702 32760
L66721 32778
L66702 32797
L66683 32778
L66702 32760
L66702 32797
" />
<path d="M66346 33135
L66383 33153
L66458 33153
L66496 33135
L66514 33116
L66533 33078
L66533 32966
L66514 32928
L66496 32910
L66458 32891
L66383 32891
L66346 32910
" />
<path d="M66214 32760
L65971 32760
L66102 32910
L66046 32910
L66008 32928
L65989 32947
L65971 32985
L65971 33078
L65989 33116
L66008 33135
L66046 33153
L66158 33153
L66196 33135
L66214 33116
" />
<path d="M65896 33191
L65596 33191
" />
<path d="M65333 33135
L65371 33153
L65446 33153
L65483 33135
L65502 33116
L65521 33078
L65521 32966
L65502 32928
L65483 32910
L65446 32891
L65371 32891
L65333 32910
" />
<path d="M65165 33153
L65165 32760
" />
<path d="M64996 33153
L64996 32947
L65015 32910
L65052 32891
L65108 32891
L65146 32910
L65165 32928
" />
<path d="M64808 33153
L64808 32891
" />
<path d="M64808 32760
L64827 32778
L64808 32797
L64790 32778
L64808 32760
L64808 32797
" />
<path d="M64621 32891
L64621 33285
" />
<path d="M64621 32910
L64583 32891
L64508 32891
L64471 32910
L64452 32928
L64433 32966
L64433 33078
L64452 33116
L64471 33135
L64508 33153
L64583 33153
L64621 33135
" />
<path d="M60569 33146
L60569 32753
L60438 33034
L60306 32753
L60306 33146
" />
<path d="M60119 33146
L60119 32884
" />
<path d="M60119 32753
L60138 32771
L60119 32790
L60100 32771
L60119 32753
L60119 32790
" />
<path d="M59763 33128
L59800 33146
L59875 33146
L59913 33128
L59931 33109
L59950 33071
L59950 32959
L59931 32921
L59913 32903
L59875 32884
L59800 32884
L59763 32903
" />
<path d="M59425 32884
L59425 33146
" />
<path d="M59519 32734
L59613 33015
L59369 33015
" />
<path d="M59313 33184
L59013 33184
" />
<path d="M58750 33128
L58788 33146
L58863 33146
L58900 33128
L58919 33109
L58938 33071
L58938 32959
L58919 32921
L58900 32903
L58863 32884
L58788 32884
L58750 32903
" />
<path d="M58582 33146
L58582 32753
" />
<path d="M58413 33146
L58413 32940
L58432 32903
L58469 32884
L58525 32884
L58563 32903
L58582 32921
" />
<path d="M58225 33146
L58225 32884
" />
<path d="M58225 32753
L58244 32771
L58225 32790
L58207 32771
L58225 32753
L58225 32790
" />
<path d="M58038 32884
L58038 33278
" />
<path d="M58038 32903
L58000 32884
L57925 32884
L57888 32903
L57869 32921
L57850 32959
L57850 33071
L57869 33109
L57888 33128
L57925 33146
L58000 33146
L58038 33128
" />
<path d="M45111 33145
L45111 32752
L44980 33033
L44848 32752
L44848 33145
" />
<path d="M44661 33145
L44661 32883
" />
<path d="M44661 32752
L44680 32770
L44661 32789
L44642 32770
L44661 32752
L44661 32789
" />
<path d="M44305 33127
L44342 33145
L44417 33145
L44455 33127
L44473 33108
L44492 33070
L44492 32958
L44473 32920
L44455 32902
L44417 32883
L44342 32883
L44305 32902
" />
<path d="M43930 33145
L44155 33145
" />
<path d="M44042 33145
L44042 32752
L44080 32808
L44117 32845
L44155 32864
" />
<path d="M43855 33183
L43555 33183
" />
<path d="M43292 33127
L43330 33145
L43405 33145
L43442 33127
L43461 33108
L43480 33070
L43480 32958
L43461 32920
L43442 32902
L43405 32883
L43330 32883
L43292 32902
" />
<path d="M43124 33145
L43124 32752
" />
<path d="M42955 33145
L42955 32939
L42974 32902
L43011 32883
L43067 32883
L43105 32902
L43124 32920
" />
<path d="M42767 33145
L42767 32883
" />
<path d="M42767 32752
L42786 32770
L42767 32789
L42749 32770
L42767 32752
L42767 32789
" />
<path d="M42580 32883
L42580 33277
" />
<path d="M42580 32902
L42542 32883
L42467 32883
L42430 32902
L42411 32920
L42392 32958
L42392 33070
L42411 33108
L42430 33127
L42467 33145
L42542 33145
L42580 33127
" />
<path d="M51699 33145
L51699 32752
L51568 33033
L51436 32752
L51436 33145
" />
<path d="M51249 33145
L51249 32883
" />
<path d="M51249 32752
L51268 32770
L51249 32789
L51230 32770
L51249 32752
L51249 32789
" />
<path d="M50893 33127
L50930 33145
L51005 33145
L51043 33127
L51061 33108
L51080 33070
L51080 32958
L51061 32920
L51043 32902
L51005 32883
L50930 32883
L50893 32902
" />
<path d="M50743 32789
L50724 32770
L50686 32752
L50593 32752
L50555 32770
L50536 32789
L50518 32827
L50518 32864
L50536 32920
L50761 33145
L50518 33145
" />
<path d="M50443 33183
L50143 33183
" />
<path d="M49880 33127
L49918 33145
L49993 33145
L50030 33127
L50049 33108
L50068 33070
L50068 32958
L50049 32920
L50030 32902
L49993 32883
L49918 32883
L49880 32902
" />
<path d="M49712 33145
L49712 32752
" />
<path d="M49543 33145
L49543 32939
L49562 32902
L49599 32883
L49655 32883
L49693 32902
L49712 32920
" />
<path d="M49355 33145
L49355 32883
" />
<path d="M49355 32752
L49374 32770
L49355 32789
L49337 32770
L49355 32752
L49355 32789
" />
<path d="M49168 32883
L49168 33277
" />
<path d="M49168 32902
L49130 32883
L49055 32883
L49018 32902
L48999 32920
L48980 32958
L48980 33070
L48999 33108
L49018 33127
L49055 33145
L49130 33145
L49168 33127
" />
<path d="M60490 41422
L60490 41029
L60359 41310
L60227 41029
L60227 41422
" />
<path d="M60040 41422
L60040 41160
" />
<path d="M60040 41029
L60059 41047
L60040 41066
L60021 41047
L60040 41029
L60040 41066
" />
<path d="M59684 41404
L59721 41422
L59796 41422
L59834 41404
L59852 41385
L59871 41347
L59871 41235
L59852 41197
L59834 41179
L59796 41160
L59721 41160
L59684 41179
" />
<path d="M59534 41066
L59515 41047
L59477 41029
L59384 41029
L59346 41047
L59327 41066
L59309 41104
L59309 41141
L59327 41197
L59552 41422
L59309 41422
" />
<path d="M59234 41460
L58934 41460
" />
<path d="M58671 41404
L58709 41422
L58784 41422
L58821 41404
L58840 41385
L58859 41347
L58859 41235
L58840 41197
L58821 41179
L58784 41160
L58709 41160
L58671 41179
" />
<path d="M58503 41422
L58503 41029
" />
<path d="M58334 41422
L58334 41216
L58353 41179
L58390 41160
L58446 41160
L58484 41179
L58503 41197
" />
<path d="M58146 41422
L58146 41160
" />
<path d="M58146 41029
L58165 41047
L58146 41066
L58128 41047
L58146 41029
L58146 41066
" />
<path d="M57959 41160
L57959 41554
" />
<path d="M57959 41179
L57921 41160
L57846 41160
L57809 41179
L57790 41197
L57771 41235
L57771 41347
L57790 41385
L57809 41404
L57846 41422
L57921 41422
L57959 41404
" />
<path d="M67078 41422
L67078 41029
L66947 41310
L66815 41029
L66815 41422
" />
<path d="M66628 41422
L66628 41160
" />
<path d="M66628 41029
L66647 41047
L66628 41066
L66609 41047
L66628 41029
L66628 41066
" />
<path d="M66272 41404
L66309 41422
L66384 41422
L66422 41404
L66440 41385
L66459 41347
L66459 41235
L66440 41197
L66422 41179
L66384 41160
L66309 41160
L66272 41179
" />
<path d="M65897 41422
L66122 41422
" />
<path d="M66009 41422
L66009 41029
L66047 41085
L66084 41122
L66122 41141
" />
<path d="M65822 41460
L65522 41460
" />
<path d="M65259 41404
L65297 41422
L65372 41422
L65409 41404
L65428 41385
L65447 41347
L65447 41235
L65428 41197
L65409 41179
L65372 41160
L65297 41160
L65259 41179
" />
<path d="M65091 41422
L65091 41029
" />
<path d="M64922 41422
L64922 41216
L64941 41179
L64978 41160
L65034 41160
L65072 41179
L65091 41197
" />
<path d="M64734 41422
L64734 41160
" />
<path d="M64734 41029
L64753 41047
L64734 41066
L64716 41047
L64734 41029
L64734 41066
" />
<path d="M64547 41160
L64547 41554
" />
<path d="M64547 41179
L64509 41160
L64434 41160
L64397 41179
L64378 41197
L64359 41235
L64359 41347
L64378 41385
L64397 41404
L64434 41422
L64509 41422
L64547 41404
" />
<path d="M51620 41421
L51620 41028
L51489 41309
L51357 41028
L51357 41421
" />
<path d="M51170 41421
L51170 41159
" />
<path d="M51170 41028
L51189 41046
L51170 41065
L51151 41046
L51170 41028
L51170 41065
" />
<path d="M50814 41403
L50851 41421
L50926 41421
L50964 41403
L50982 41384
L51001 41346
L51001 41234
L50982 41196
L50964 41178
L50926 41159
L50851 41159
L50814 41178
" />
<path d="M50476 41159
L50476 41421
" />
<path d="M50570 41009
L50664 41290
L50420 41290
" />
<path d="M50364 41459
L50064 41459
" />
<path d="M49801 41403
L49839 41421
L49914 41421
L49951 41403
L49970 41384
L49989 41346
L49989 41234
L49970 41196
L49951 41178
L49914 41159
L49839 41159
L49801 41178
" />
<path d="M49633 41421
L49633 41028
" />
<path d="M49464 41421
L49464 41215
L49483 41178
L49520 41159
L49576 41159
L49614 41178
L49633 41196
" />
<path d="M49276 41421
L49276 41159
" />
<path d="M49276 41028
L49295 41046
L49276 41065
L49258 41046
L49276 41028
L49276 41065
" />
<path d="M49089 41159
L49089 41553
" />
<path d="M49089 41178
L49051 41159
L48976 41159
L48939 41178
L48920 41196
L48901 41234
L48901 41346
L48920 41384
L48939 41403
L48976 41421
L49051 41421
L49089 41403
" />
<path d="M45037 41414
L45037 41021
L44906 41302
L44774 41021
L44774 41414
" />
<path d="M44587 41414
L44587 41152
" />
<path d="M44587 41021
L44606 41039
L44587 41058
L44568 41039
L44587 41021
L44587 41058
" />
<path d="M44231 41396
L44268 41414
L44343 41414
L44381 41396
L44399 41377
L44418 41339
L44418 41227
L44399 41189
L44381 41171
L44343 41152
L44268 41152
L44231 41171
" />
<path d="M44099 41021
L43856 41021
L43987 41171
L43931 41171
L43893 41189
L43874 41208
L43856 41246
L43856 41339
L43874 41377
L43893 41396
L43931 41414
L44043 41414
L44081 41396
L44099 41377
" />
<path d="M43781 41452
L43481 41452
" />
<path d="M43218 41396
L43256 41414
L43331 41414
L43368 41396
L43387 41377
L43406 41339
L43406 41227
L43387 41189
L43368 41171
L43331 41152
L43256 41152
L43218 41171
" />
<path d="M43050 41414
L43050 41021
" />
<path d="M42881 41414
L42881 41208
L42900 41171
L42937 41152
L42993 41152
L43031 41171
L43050 41189
" />
<path d="M42693 41414
L42693 41152
" />
<path d="M42693 41021
L42712 41039
L42693 41058
L42675 41039
L42693 41021
L42693 41058
" />
<path d="M42506 41152
L42506 41546
" />
<path d="M42506 41171
L42468 41152
L42393 41152
L42356 41171
L42337 41189
L42318 41227
L42318 41339
L42337 41377
L42356 41396
L42393 41414
L42468 41414
L42506 41396
" />
</g> 
</svg>
